<svg xmlns="http://www.w3.org/2000/svg" width="80" height="80" viewBox="0 0 80 80"><defs><linearGradient id="tile" x1="0" y1="0" x2="0" y2="1"><stop stop-color="#f7d992"/><stop offset="1" stop-color="#e8b860"/></linearGradient><linearGradient id="paper" x1="0" y1="0" x2="0" y2="1"><stop stop-color="#ffffff"/><stop offset="1" stop-color="#d9e7fa"/></linearGradient><linearGradient id="folder" x1="0" y1="0" x2="0" y2="1"><stop stop-color="#7cdbff"/><stop offset="1" stop-color="#309ddd"/></linearGradient></defs><path d="M22 12H59Q64 12 64 17V66Q64 70 59 70H22Q17 70 17 65V17Q17 12 22 12Z" fill="#42516d" opacity=".13"/><rect x="17" y="10" width="46" height="59" rx="7" fill="#fffdf3"/><path d="M17 17Q17 10 24 10H56Q63 10 63 17V25H17Z" fill="#f1c976"/><path d="M26 34H54M26 43H54M26 52H48" stroke="#d6cebb" stroke-width="2" stroke-linecap="round"/></svg>
