<svg xmlns="http://www.w3.org/2000/svg" width="1440" height="1000" viewBox="0 0 1440 1000">
<title>Nexus Aura — Pearl desktop design reference</title>
<defs><linearGradient id="wallpaper" x2="1" y2="1"><stop stop-color="#121722"/><stop offset="1" stop-color="#1B2C3A"/></linearGradient><linearGradient id="hero" x2="1" y2="1"><stop stop-color="#343B54"/><stop offset="1" stop-color="#29494C"/></linearGradient><clipPath id="viewport"><rect x="296" y="134" width="1112" height="748"/></clipPath></defs>
<g font-family="DejaVu Sans, sans-serif">
<rect x="0" y="0" width="1440" height="1000" rx="0" fill="url(#wallpaper)" fill-opacity="1"/>
<path d="M430,-160 C1240,-170 1320,640 1870,310 L1870,1110 C970,1200 1360,240 430,-160Z" fill="#5360A2" opacity=".09"/>
<path d="M640,-120 C1400,120 1050,750 1750,620" fill="none" stroke="#978ED1" stroke-opacity=".12"/>
<path d="M-190,780 C510,430 400,1190 1200,1110" fill="none" stroke="#5DDDCE" stroke-opacity=".05" stroke-width="160"/>
<rect x="24" y="16" width="1392" height="56" rx="20" fill="#1B2433" fill-opacity="1" stroke="#6D809A" stroke-opacity=".25"/>
<rect x="40" y="29" width="30" height="30" rx="10" fill="#C7BEF7" fill-opacity="1"/>
<text x="55" y="51" font-size="20" fill="#171C29" font-weight="600" text-anchor="middle">N</text>
<text x="80" y="50" font-size="13" fill="#F4F7FE" font-weight="600" text-anchor="start" letter-spacing="1.2">NEXUS</text>
<rect x="168" y="25" width="90" height="38" rx="12" fill="#303D50" fill-opacity="1"/>
<text x="213.0" y="50" font-size="13" fill="#C7BEF7" font-weight="400" text-anchor="middle">Desktop</text>
<text x="325.0" y="50" font-size="13" fill="#F4F7FE" font-weight="400" text-anchor="middle">Workspaces</text>
<text x="436.0" y="50" font-size="13" fill="#F4F7FE" font-weight="400" text-anchor="middle">Explore</text>
<text x="523.0" y="50" font-size="13" fill="#F4F7FE" font-weight="400" text-anchor="middle">Study</text>
<text x="601.0" y="50" font-size="13" fill="#F4F7FE" font-weight="400" text-anchor="middle">Apps</text>
<text x="677.5" y="50" font-size="13" fill="#F4F7FE" font-weight="400" text-anchor="middle">More</text>
<text x="1130" y="50" font-size="12" fill="#F4F7FE" font-weight="400" text-anchor="start">Wed 14:56</text>
<g transform="translate(1260,36) scale(0.7083333333333334)" fill="none" stroke="#EFF1FD" stroke-width="1.6" stroke-linecap="round" stroke-linejoin="round"><path d="M2 9V2h7m6 0h7v7M2 15v7h7m6 0h7v-7"/></g>
<g transform="translate(1308,36) scale(0.7083333333333334)" fill="none" stroke="#EFF1FD" stroke-width="1.6" stroke-linecap="round" stroke-linejoin="round"><circle cx="12" cy="12" r="4"/><path d="m12 1 2 4 4-1 2 3-2 4 3 2-1 4-4 1-2 4-4-1-1-4-4-2 1-4-3-2 2-4 4 1 3-3Z"/></g>
<g transform="translate(1360,36) scale(0.7083333333333334)" fill="none" stroke="#EFF1FD" stroke-width="1.6" stroke-linecap="round" stroke-linejoin="round"><path d="m5 5 14 14M5 19 19 5"/></g>
<text x="32" y="111" font-size="10" fill="#B8C3D6" font-weight="400" text-anchor="start" letter-spacing="1.6">NEXUS DESKTOP  /  STUDY</text>
<g transform="translate(1190,94) scale(0.6666666666666666)" fill="none" stroke="#EFF1FD" stroke-width="1.6" stroke-linecap="round" stroke-linejoin="round"><circle cx="10" cy="10" r="7"/><path d="m15 15 7 7"/></g>
<text x="1216" y="108" font-size="12" fill="#F4F7FE" font-weight="400" text-anchor="start">Search your orbit</text>
<text x="1360" y="108" font-size="10" fill="#B8C3D6" font-weight="400" text-anchor="start">Ctrl K</text>
<rect x="32" y="162" width="126" height="30" rx="14" fill="#2D3A4D" fill-opacity="1"/>
<text x="46" y="182" font-size="11" fill="#C7BEF7" font-weight="400" text-anchor="start">25:00 · Focus</text>
<text x="32" y="223" font-size="9" fill="#B8C3D6" font-weight="400" text-anchor="start" letter-spacing="1">NEXUS AURA / PEARL</text>
<text x="32" y="258" font-size="14" fill="#B8C3D6" font-weight="400" text-anchor="start">Wednesday, 7 October</text>
<text x="27" y="346" font-size="78" fill="#F4F7FE" font-weight="400" text-anchor="start">14:56</text>
<text x="32" y="392" font-size="16" fill="#F4F7FE" font-weight="400" text-anchor="start">Good afternoon, Shan.</text>
<rect x="32" y="434" width="232" height="151" rx="20" fill="#2A3343" fill-opacity="1" stroke="#6D809A" stroke-opacity=".25"/>
<g transform="translate(52,454) scale(0.9166666666666666)" fill="none" stroke="#C7BEF7" stroke-width="1.6" stroke-linecap="round" stroke-linejoin="round"><path d="M19 18a9 9 0 0 1-13-13 9 9 0 1 0 13 13Z"/></g>
<text x="52" y="502" font-size="18" fill="#F4F7FE" font-weight="400" text-anchor="start">Shan’s space</text>
<text x="52" y="533" font-size="13" fill="#B8C3D6" font-weight="400" text-anchor="start">A little space for your</text>
<text x="52" y="555" font-size="13" fill="#B8C3D6" font-weight="400" text-anchor="start">next big idea.</text>
<text x="46" y="625" font-size="13" fill="#F4F7FE" font-weight="400" text-anchor="start">Open my files</text>
<text x="46" y="668" font-size="13" fill="#F4F7FE" font-weight="400" text-anchor="start">Windows settings</text>
<g clip-path="url(#viewport)">
<text x="312" y="169" font-size="15" fill="#B8C3D6" font-weight="400" text-anchor="start">Welcome back, Shan.</text>
<text x="1300" y="169" font-size="13" fill="#F4F7FE" font-weight="400" text-anchor="start">Workspaces</text>
<rect x="312" y="191" width="266" height="54" rx="18" fill="#2A3343" fill-opacity="1" stroke="#6D809A" stroke-opacity=".25"/>
<g transform="translate(329,208) scale(0.75)" fill="none" stroke="#F4F7FE" stroke-width="1.6" stroke-linecap="round" stroke-linejoin="round"><path d="m2 10 10-8 10 8M5 9v13h14V9m-10 13v-8h6v8"/></g>
<text x="360" y="224" font-size="14" fill="#F4F7FE" font-weight="400" text-anchor="start">Personal</text>
<rect x="588" y="191" width="266" height="54" rx="18" fill="#344052" fill-opacity="1" stroke="#6D809A" stroke-opacity=".25"/>
<g transform="translate(605,208) scale(0.75)" fill="none" stroke="#C7BEF7" stroke-width="1.6" stroke-linecap="round" stroke-linejoin="round"><path d="M19 18a9 9 0 0 1-13-13 9 9 0 1 0 13 13Z"/></g>
<text x="636" y="224" font-size="14" fill="#C7BEF7" font-weight="400" text-anchor="start">Study</text>
<rect x="864" y="191" width="266" height="54" rx="18" fill="#2A3343" fill-opacity="1" stroke="#6D809A" stroke-opacity=".25"/>
<g transform="translate(881,208) scale(0.75)" fill="none" stroke="#F4F7FE" stroke-width="1.6" stroke-linecap="round" stroke-linejoin="round"><path d="m8 5-6 7 6 7m8-14 6 7-6 7m-3-15-3 18"/></g>
<text x="912" y="224" font-size="14" fill="#F4F7FE" font-weight="400" text-anchor="start">Coding</text>
<rect x="1140" y="191" width="266" height="54" rx="18" fill="#2A3343" fill-opacity="1" stroke="#6D809A" stroke-opacity=".25"/>
<g transform="translate(1157,208) scale(0.75)" fill="none" stroke="#F4F7FE" stroke-width="1.6" stroke-linecap="round" stroke-linejoin="round"><path d="M6 7h12c5 0 8 14 4 15-2 1-4-4-6-4H8c-2 0-4 5-6 4C-2 21 1 7 6 7Z"/><path d="M7 10v7m-3-3.5h6m6-2h.2m3 3h.2"/></g>
<text x="1188" y="224" font-size="14" fill="#F4F7FE" font-weight="400" text-anchor="start">Entertainment</text>
<rect x="312" y="265" width="1096" height="236" rx="26" fill="url(#hero)" fill-opacity="1" stroke="#6D809A" stroke-opacity=".25"/>
<text x="342" y="297" font-size="10" fill="#C7BEF7" font-weight="400" text-anchor="start" letter-spacing="1.4">YOUR PERSONAL DESKTOP</text>
<text x="342" y="347" font-size="36" fill="#F4F7FE" font-weight="600" text-anchor="start">Study. A space to begin.</text>
<text x="342" y="380" font-size="14" fill="#B8C3D6" font-weight="400" text-anchor="start">Make room for your A/L studies.</text>
<text x="342" y="411" font-size="12" fill="#B8C3D6" font-weight="400" text-anchor="start">2 apps · 2 saved items</text>
<rect x="342" y="438" width="132" height="42" rx="12" fill="#C7BEF7" fill-opacity="1"/>
<text x="408" y="464" font-size="14" fill="#171C29" font-weight="600" text-anchor="middle">Open Study</text>
<text x="500" y="464" font-size="14" fill="#F4F7FE" font-weight="400" text-anchor="start">Go to Study</text>
<text x="620" y="464" font-size="14" fill="#F4F7FE" font-weight="400" text-anchor="start">Configure</text>
<g transform="translate(1230,300)"><circle cx="65" cy="80" r="58" fill="#34465C" stroke="#9BDED8" stroke-opacity=".6"/><ellipse cx="65" cy="80" rx="77" ry="28" fill="none" stroke="#C7BEF7" transform="rotate(-32,65,80)"/><ellipse cx="65" cy="80" rx="73" ry="23" fill="none" stroke="#9BDED8" transform="rotate(34,65,80)"/><circle cx="129" cy="38" r="5" fill="#C7BEF7"/></g>
<text x="1295" y="402" font-size="68" fill="#F4F7FE" font-weight="300" text-anchor="middle">N</text>
<rect x="312" y="521" width="540" height="186" rx="20" fill="#2A3343" fill-opacity="1" stroke="#6D809A" stroke-opacity=".25"/>
<rect x="868" y="521" width="540" height="186" rx="20" fill="#2A3343" fill-opacity="1" stroke="#6D809A" stroke-opacity=".25"/>
<text x="332" y="557" font-size="19" fill="#F4F7FE" font-weight="600" text-anchor="start">In focus</text>
<text x="789" y="555" font-size="12" fill="#F4F7FE" font-weight="400" text-anchor="start">Study</text>
<text x="332" y="587" font-size="13" fill="#B8C3D6" font-weight="400" text-anchor="start">Focusing on: ET — revise circuit notes</text>
<rect x="333" y="608" width="16" height="16" rx="4" fill="#141B29" fill-opacity="1" stroke="#6D809A" stroke-opacity=".25"/>
<text x="359" y="622" font-size="13" fill="#F4F7FE" font-weight="400" text-anchor="start">ET — revise circuit notes</text>
<rect x="333" y="642" width="16" height="16" rx="4" fill="#141B29" fill-opacity="1" stroke="#6D809A" stroke-opacity=".25"/>
<text x="359" y="656" font-size="13" fill="#F4F7FE" font-weight="400" text-anchor="start">Practice JavaScript for 30 minutes</text>
<text x="332" y="688" font-size="12" fill="#B8C3D6" font-weight="400" text-anchor="start">1 focus session today</text>
<text x="888" y="557" font-size="19" fill="#F4F7FE" font-weight="600" text-anchor="start">Within reach</text>
<text x="1314" y="555" font-size="12" fill="#F4F7FE" font-weight="400" text-anchor="start">Explore</text>
<g transform="translate(889,590) scale(0.75)" fill="none" stroke="#C7BEF7" stroke-width="1.6" stroke-linecap="round" stroke-linejoin="round"><circle cx="12" cy="12" r="10"/><ellipse cx="12" cy="12" rx="4.5" ry="10"/><path d="M2 12h20"/></g>
<text x="919" y="605" font-size="14" fill="#F4F7FE" font-weight="400" text-anchor="start">ICT learning resources</text>
<g transform="translate(889,631) scale(0.75)" fill="none" stroke="#C7BEF7" stroke-width="1.6" stroke-linecap="round" stroke-linejoin="round"><path d="M2 7V4h7l3 3h10v14H2Z"/></g>
<text x="919" y="646" font-size="14" fill="#F4F7FE" font-weight="400" text-anchor="start">My A/L notes</text>
<text x="888" y="688" font-size="12" fill="#B8C3D6" font-weight="400" text-anchor="start">2 saved items</text>
<rect x="312" y="727" width="540" height="225" rx="20" fill="#2A3343" fill-opacity="1" stroke="#6D809A" stroke-opacity=".25"/>
<rect x="868" y="727" width="540" height="225" rx="20" fill="#2A3343" fill-opacity="1" stroke="#6D809A" stroke-opacity=".25"/>
<text x="332" y="763" font-size="19" fill="#F4F7FE" font-weight="600" text-anchor="start">Your essentials</text>
<text x="758" y="761" font-size="12" fill="#F4F7FE" font-weight="400" text-anchor="start">App Library</text>
<rect x="350" y="789" width="56" height="56" rx="18" fill="#344E70" fill-opacity="1" stroke="#6D809A" stroke-opacity=".25"/>
<g transform="translate(365,804) scale(1.0416666666666667)" fill="none" stroke="#EFF1FD" stroke-width="1.6" stroke-linecap="round" stroke-linejoin="round"><circle cx="12" cy="12" r="10"/><ellipse cx="12" cy="12" rx="4.5" ry="10"/><path d="M2 12h20"/></g>
<text x="378" y="871" font-size="13" fill="#F4F7FE" font-weight="400" text-anchor="middle">Firefox</text>
<rect x="484" y="789" width="56" height="56" rx="18" fill="#514766" fill-opacity="1" stroke="#6D809A" stroke-opacity=".25"/>
<g transform="translate(499,804) scale(1.0416666666666667)" fill="none" stroke="#EFF1FD" stroke-width="1.6" stroke-linecap="round" stroke-linejoin="round"><path d="m8 5-6 7 6 7m8-14 6 7-6 7m-3-15-3 18"/></g>
<text x="512" y="871" font-size="13" fill="#F4F7FE" font-weight="400" text-anchor="middle">VS Code</text>
<text x="888" y="763" font-size="19" fill="#F4F7FE" font-weight="600" text-anchor="start">A thought to keep</text>
<rect x="888" y="785" width="500" height="144" rx="12" fill="#141B29" fill-opacity="1" stroke="#6D809A" stroke-opacity=".25"/>
<text x="904" y="819" font-size="14" fill="#B8C3D6" font-weight="400" text-anchor="start">One small step today.</text>
<text x="904" y="851" font-size="13" fill="#B8C3D6" font-weight="400" text-anchor="start">Finish ET notes, then build something.</text>
</g>
<rect x="445" y="902" width="550" height="76" rx="26" fill="#1B2433" fill-opacity="1" stroke="#6D809A" stroke-opacity=".25"/>
<rect x="458" y="915" width="48" height="48" rx="16" fill="#C7BEF7" fill-opacity="1"/>
<text x="482" y="949" font-size="27" fill="#171C29" font-weight="400" text-anchor="middle">N</text>
<rect x="517" y="925" width="1" height="30" rx="0" fill="#6D809A" fill-opacity="1"/>
<rect x="530" y="915" width="48" height="48" rx="16" fill="#344E70" fill-opacity="1" stroke="#6D809A" stroke-opacity=".25"/>
<g transform="translate(543,928) scale(0.9166666666666666)" fill="none" stroke="#EFF1FD" stroke-width="1.6" stroke-linecap="round" stroke-linejoin="round"><circle cx="12" cy="12" r="10"/><ellipse cx="12" cy="12" rx="4.5" ry="10"/><path d="M2 12h20"/></g>
<rect x="592" y="915" width="48" height="48" rx="16" fill="#514766" fill-opacity="1" stroke="#6D809A" stroke-opacity=".25"/>
<g transform="translate(605,928) scale(0.9166666666666666)" fill="none" stroke="#EFF1FD" stroke-width="1.6" stroke-linecap="round" stroke-linejoin="round"><path d="m8 5-6 7 6 7m8-14 6 7-6 7m-3-15-3 18"/></g>
<rect x="655" y="915" width="40" height="38" rx="12" fill="#2A3343" fill-opacity="1"/>
<text x="675" y="942" font-size="17" fill="#F4F7FE" font-weight="400" text-anchor="middle">F</text>
<rect x="673" y="958" width="5" height="3" rx="2" fill="#C7BEF7" fill-opacity="1"/>
<rect x="712" y="915" width="40" height="38" rx="12" fill="#2A3343" fill-opacity="1"/>
<text x="732" y="942" font-size="17" fill="#F4F7FE" font-weight="400" text-anchor="middle">C</text>
<rect x="730" y="958" width="5" height="3" rx="2" fill="#C7BEF7" fill-opacity="1"/>
<rect x="769" y="915" width="40" height="38" rx="12" fill="#2A3343" fill-opacity="1"/>
<text x="789" y="942" font-size="17" fill="#F4F7FE" font-weight="400" text-anchor="middle">T</text>
<rect x="787" y="958" width="5" height="3" rx="2" fill="#C7BEF7" fill-opacity="1"/>
<rect x="834" y="915" width="48" height="48" rx="16" fill="#2A3343" fill-opacity="1" stroke="#6D809A" stroke-opacity=".25"/>
<g transform="translate(847,928) scale(0.9166666666666666)" fill="none" stroke="#EFF1FD" stroke-width="1.6" stroke-linecap="round" stroke-linejoin="round"><circle cx="10" cy="10" r="7"/><path d="m15 15 7 7"/></g>
<rect x="896" y="915" width="48" height="48" rx="16" fill="#2A3343" fill-opacity="1" stroke="#6D809A" stroke-opacity=".25"/>
<g transform="translate(909,928) scale(0.9166666666666666)" fill="none" stroke="#EFF1FD" stroke-width="1.6" stroke-linecap="round" stroke-linejoin="round"><rect x="1" y="2" width="15" height="14" rx="2"/><rect x="7" y="8" width="16" height="14" rx="2"/></g>
<text x="32" y="947" font-size="11" fill="#B8C3D6" font-weight="400" text-anchor="start">Nexus · native desktop</text>
<text x="1240" y="947" font-size="12" fill="#F4F7FE" font-weight="400" text-anchor="start">Control center</text>
<text x="32" y="992" font-size="9" fill="#B8C3D6" font-weight="400" text-anchor="start">0.6.0 AURA DESIGN REFERENCE · Illustrative data · Not a Windows screenshot</text>
</g></svg>