<svg xmlns="http://www.w3.org/2000/svg" width="1600" height="1000" viewBox="0 0 1600 1000">
<title>NEXUS 0.8.0 Opal Desktop design reference</title>
<defs><linearGradient id="sky" x2="1" y2="1"><stop stop-color="#243856"/><stop offset="1" stop-color="#244c61"/></linearGradient><linearGradient id="fold" x2="1" y2="1"><stop stop-color="#b8a4f4"/><stop offset=".38" stop-color="#8b73df"/><stop offset=".69" stop-color="#4b77c4"/><stop offset="1" stop-color="#63c7d4"/></linearGradient><linearGradient id="fold2" x2="1" y2="1"><stop stop-color="#99c9f3"/><stop offset=".38" stop-color="#6890d8"/><stop offset=".73" stop-color="#9a87da"/><stop offset="1" stop-color="#cbb7ee"/></linearGradient><linearGradient id="hero" x2="1" y2="1"><stop stop-color="#e0e9fc"/><stop offset="1" stop-color="#d8efed"/></linearGradient></defs>
<g font-family="DejaVu Sans, Segoe UI, sans-serif">
<rect x="0" y="0" width="1600" height="1000" rx="0" fill="url(#sky)" fill-opacity="1" stroke="#edf4ff" stroke-opacity=".65"/>
<path d="M480-180C1010-130 740 270 1130 395C1500 515 1310 800 1810 1000L1700 1260C1000 1190 1170 655 825 530C475 405 745 40 480-180Z" fill="url(#fold)" opacity=".85"/>
<path d="M680-170C1210 70 780 325 1150 520C1470 690 1030 900 1510 1150L1180 1260C970 1070 1120 780 920 635C495 345 1000 185 680-170Z" fill="url(#fold2)" opacity=".85"/>
<path d="M806-85C1140 150 890 330 1195 560C1400 715 1180 965 1535 1120" fill="none" stroke="#e4f0ff" stroke-opacity=".45" stroke-width="1.5"/>
<rect x="12" y="8" width="1576" height="42" rx="13" fill="#e6edf9" fill-opacity="0.91" stroke="#edf4ff" stroke-opacity=".65"/>
<rect x="28" y="16" width="24" height="24" rx="7" fill="#2454aa" fill-opacity="1" stroke="#edf4ff" stroke-opacity=".65"/>
<text x="40" y="34" font-size="15" fill="white" font-weight="600" text-anchor="middle">N</text>
<text x="65" y="34" font-size="12" fill="#1b273d" font-weight="600" text-anchor="start">NEXUS</text>
<text x="162" y="34" font-size="12" fill="#2454aa" font-weight="500" text-anchor="start">Desktop</text>
<text x="250" y="34" font-size="12" fill="#4b5b73" font-weight="500" text-anchor="start">Workspaces</text>
<text x="365" y="34" font-size="12" fill="#4b5b73" font-weight="500" text-anchor="start">Explore</text>
<text x="448" y="34" font-size="12" fill="#4b5b73" font-weight="500" text-anchor="start">Study</text>
<text x="521" y="34" font-size="12" fill="#4b5b73" font-weight="500" text-anchor="start">Apps</text>
<text x="1410" y="34" font-size="12" fill="#1b273d" font-weight="400" text-anchor="start">Wed  22:29</text>
<text x="1552" y="34" font-size="12" fill="#1b273d" font-weight="400" text-anchor="start">•••</text>
<text x="36" y="80" font-size="20" fill="#f5f8ff" font-weight="400" text-anchor="start">‹   ›</text>
<text x="106" y="78" font-size="10" fill="#d2dded" font-weight="400" text-anchor="start">NEXUS  /  DESKTOP  /  PERSONAL</text>
<text x="1556" y="78" font-size="12" fill="#f5f8ff" font-weight="400" text-anchor="end">⌕  Search your orbit     Ctrl K</text>
<rect x="537" y="920" width="526" height="66" rx="22" fill="#e6edf9" fill-opacity="0.91" stroke="#edf4ff" stroke-opacity=".65"/>
<rect x="549" y="929" width="48" height="48" rx="14" fill="#2454aa" fill-opacity="1" stroke="#edf4ff" stroke-opacity=".65"/>
<text x="573" y="960" font-size="23" fill="white" font-weight="500" text-anchor="middle">N</text>
<rect x="621" y="929" width="48" height="48" rx="14" fill="#355dc7" fill-opacity="1" stroke="#edf4ff" stroke-opacity=".65"/>
<text x="645" y="960" font-size="23" fill="white" font-weight="500" text-anchor="middle">▣</text>
<rect x="693" y="929" width="48" height="48" rx="14" fill="#237ea1" fill-opacity="1" stroke="#edf4ff" stroke-opacity=".65"/>
<text x="717" y="960" font-size="23" fill="white" font-weight="500" text-anchor="middle">F</text>
<rect x="765" y="929" width="48" height="48" rx="14" fill="#7550ba" fill-opacity="1" stroke="#edf4ff" stroke-opacity=".65"/>
<text x="789" y="960" font-size="23" fill="white" font-weight="500" text-anchor="middle">B</text>
<rect x="837" y="929" width="48" height="48" rx="14" fill="#3f4e64" fill-opacity="1" stroke="#edf4ff" stroke-opacity=".65"/>
<text x="861" y="960" font-size="23" fill="white" font-weight="500" text-anchor="middle">A</text>
<rect x="909" y="929" width="48" height="48" rx="14" fill="#dbe5f5" fill-opacity="1" stroke="#edf4ff" stroke-opacity=".65"/>
<text x="933" y="960" font-size="23" fill="#2454aa" font-weight="500" text-anchor="middle">⌕</text>
<rect x="981" y="929" width="48" height="48" rx="14" fill="#dbe5f5" fill-opacity="1" stroke="#edf4ff" stroke-opacity=".65"/>
<text x="1005" y="960" font-size="23" fill="#2454aa" font-weight="500" text-anchor="middle">▤</text>
<text x="36" y="954" font-size="10" fill="#d2dded" font-weight="400" text-anchor="start">Nexus · native desktop</text>
<rect x="36" y="130" width="124" height="32" rx="20" fill="#f8faff" fill-opacity="0.92" stroke="#edf4ff" stroke-opacity=".65"/>
<text x="98" y="151" font-size="11" fill="#2454aa" font-weight="500" text-anchor="middle">Your orbit</text>
<text x="36" y="195" font-size="10" fill="#d2dded" font-weight="400" text-anchor="start">NEXUS / OPAL</text>
<text x="36" y="229" font-size="14" fill="#d2dded" font-weight="400" text-anchor="start">Wednesday, 7 October</text>
<text x="29" y="310" font-size="73" fill="#f5f8ff" font-weight="300" text-anchor="start">22:29</text>
<text x="36" y="346" font-size="15" fill="#f5f8ff" font-weight="400" text-anchor="start">Good evening, Shan.</text>
<rect x="36" y="378" width="236" height="228" rx="20" fill="#f8faff" fill-opacity="0.92" stroke="#edf4ff" stroke-opacity=".65"/>
<text x="56" y="413" font-size="18" fill="#1b273d" font-weight="500" text-anchor="start">Shan’s space</text>
<text x="56" y="452" font-size="13" fill="#1b273d" font-weight="400" text-anchor="start">Personal</text>
<text x="250" y="452" font-size="11" fill="#4b5b73" font-weight="400" text-anchor="end">4</text>
<text x="56" y="491" font-size="13" fill="#1b273d" font-weight="400" text-anchor="start">Study</text>
<text x="250" y="491" font-size="11" fill="#4b5b73" font-weight="400" text-anchor="end">6</text>
<text x="56" y="530" font-size="13" fill="#1b273d" font-weight="400" text-anchor="start">Build</text>
<text x="250" y="530" font-size="11" fill="#4b5b73" font-weight="400" text-anchor="end">3</text>
<text x="56" y="576" font-size="12" fill="#2454aa" font-weight="400" text-anchor="start">Capture a note</text>
<rect x="36" y="625" width="236" height="188" rx="20" fill="#f8faff" fill-opacity="0.92" stroke="#edf4ff" stroke-opacity=".65"/>
<text x="56" y="660" font-size="13" fill="#4b5b73" font-weight="400" text-anchor="start">A moment of focus</text>
<text x="56" y="721" font-size="44" fill="#1b273d" font-weight="300" text-anchor="start">25:00</text>
<rect x="56" y="749" width="122" height="38" rx="12" fill="#2454aa" fill-opacity="0.92" stroke="#edf4ff" stroke-opacity=".65"/>
<text x="117.0" y="773" font-size="12" fill="white" font-weight="500" text-anchor="middle">Start focus</text>
<rect x="186" y="749" width="65" height="38" rx="12" fill="#e1eafa" fill-opacity="0.92" stroke="#edf4ff" stroke-opacity=".65"/>
<text x="218.5" y="773" font-size="12" fill="#1b273d" font-weight="500" text-anchor="middle">Study</text>
<text x="43" y="852" font-size="12" fill="#f5f8ff" font-weight="400" text-anchor="start">Open my files ↗</text>
<text x="43" y="891" font-size="12" fill="#f5f8ff" font-weight="400" text-anchor="start">Windows settings ↗</text>
<rect x="304" y="114" width="303" height="52" rx="18" fill="#f8faff" fill-opacity="0.86" stroke="#edf4ff" stroke-opacity=".65"/>
<text x="327" y="147" font-size="13" fill="#2454aa" font-weight="500" text-anchor="start">Personal</text>
<rect x="623" y="114" width="303" height="52" rx="18" fill="#f8faff" fill-opacity="0.86" stroke="#edf4ff" stroke-opacity=".65"/>
<text x="646" y="147" font-size="13" fill="#1b273d" font-weight="500" text-anchor="start">Study</text>
<rect x="942" y="114" width="303" height="52" rx="18" fill="#f8faff" fill-opacity="0.86" stroke="#edf4ff" stroke-opacity=".65"/>
<text x="965" y="147" font-size="13" fill="#1b273d" font-weight="500" text-anchor="start">Build</text>
<rect x="1261" y="114" width="303" height="52" rx="18" fill="#f8faff" fill-opacity="0.86" stroke="#edf4ff" stroke-opacity=".65"/>
<text x="1284" y="147" font-size="13" fill="#1b273d" font-weight="500" text-anchor="start">Game</text>
<rect x="304" y="186" width="1260" height="231" rx="26" fill="url(#hero)" fill-opacity="1" stroke="#edf4ff" stroke-opacity=".65"/>
<text x="334" y="221" font-size="10" fill="#2454aa" font-weight="500" text-anchor="start">YOUR PERSONAL DESKTOP</text>
<text x="334" y="269" font-size="36" fill="#1b273d" font-weight="600" text-anchor="start">Your day, your space.</text>
<text x="334" y="303" font-size="14" fill="#4b5b73" font-weight="400" text-anchor="start">Your everyday essentials.</text>
<text x="334" y="334" font-size="12" fill="#4b5b73" font-weight="400" text-anchor="start">4 apps · 4 saved items</text>
<rect x="334" y="356" width="140" height="38" rx="12" fill="#2454aa" fill-opacity="0.92" stroke="#edf4ff" stroke-opacity=".65"/>
<text x="404.0" y="380" font-size="12" fill="white" font-weight="500" text-anchor="middle">Open Personal</text>
<rect x="484" y="356" width="117" height="38" rx="12" fill="#e1eafa" fill-opacity="0.92" stroke="#edf4ff" stroke-opacity=".65"/>
<text x="542.5" y="380" font-size="12" fill="#1b273d" font-weight="500" text-anchor="middle">Your apps</text>
<rect x="611" y="356" width="112" height="38" rx="12" fill="#e1eafa" fill-opacity="0.92" stroke="#edf4ff" stroke-opacity=".65"/>
<text x="667.0" y="380" font-size="12" fill="#1b273d" font-weight="500" text-anchor="middle">Configure</text>
<ellipse cx="1425" cy="300" rx="60" ry="60" fill="#34465c"/><ellipse cx="1425" cy="300" rx="78" ry="28" fill="none" stroke="#2454aa" stroke-width="2" transform="rotate(-32 1425 300)"/><ellipse cx="1425" cy="300" rx="76" ry="24" fill="none" stroke="#285f70" transform="rotate(34 1425 300)"/>
<text x="1425" y="324" font-size="68" fill="#f5f8ff" font-weight="300" text-anchor="middle">N</text>
<rect x="304" y="437" width="622" height="224" rx="20" fill="#f8faff" fill-opacity="0.92" stroke="#edf4ff" stroke-opacity=".65"/>
<text x="328" y="473" font-size="19" fill="#1b273d" font-weight="600" text-anchor="start">Your essentials</text>
<text x="900" y="473" font-size="12" fill="#2454aa" font-weight="400" text-anchor="end">App Library</text>
<rect x="359" y="505" width="56" height="56" rx="17" fill="#237ea1" fill-opacity="1" stroke="#edf4ff" stroke-opacity=".65"/>
<text x="387" y="542" font-size="27" fill="white" font-weight="400" text-anchor="middle">F</text>
<text x="387" y="595" font-size="13" fill="#1b273d" font-weight="400" text-anchor="middle">Files</text>
<rect x="504" y="505" width="56" height="56" rx="17" fill="#355dc7" fill-opacity="1" stroke="#edf4ff" stroke-opacity=".65"/>
<text x="532" y="542" font-size="27" fill="white" font-weight="400" text-anchor="middle">B</text>
<text x="532" y="595" font-size="13" fill="#1b273d" font-weight="400" text-anchor="middle">Browser</text>
<rect x="649" y="505" width="56" height="56" rx="17" fill="#7550ba" fill-opacity="1" stroke="#edf4ff" stroke-opacity=".65"/>
<text x="677" y="542" font-size="27" fill="white" font-weight="400" text-anchor="middle">B</text>
<text x="677" y="595" font-size="13" fill="#1b273d" font-weight="400" text-anchor="middle">Build</text>
<rect x="794" y="505" width="56" height="56" rx="17" fill="#3f4e64" fill-opacity="1" stroke="#edf4ff" stroke-opacity=".65"/>
<text x="822" y="542" font-size="27" fill="white" font-weight="400" text-anchor="middle">A</text>
<text x="822" y="595" font-size="13" fill="#1b273d" font-weight="400" text-anchor="middle">Apps</text>
<rect x="942" y="437" width="622" height="224" rx="20" fill="#f8faff" fill-opacity="0.92" stroke="#edf4ff" stroke-opacity=".65"/>
<text x="966" y="473" font-size="19" fill="#1b273d" font-weight="600" text-anchor="start">In focus</text>
<text x="1538" y="473" font-size="12" fill="#2454aa" font-weight="400" text-anchor="end">Study</text>
<rect x="966" y="500" width="20" height="20" rx="6" fill="#e1eafa" fill-opacity="0.92" stroke="#edf4ff" stroke-opacity=".65"/>
<text x="1000" y="516" font-size="13" fill="#1b273d" font-weight="400" text-anchor="start">Finish one ICT lesson</text>
<rect x="966" y="546" width="20" height="20" rx="6" fill="#e1eafa" fill-opacity="0.92" stroke="#edf4ff" stroke-opacity=".65"/>
<text x="1000" y="562" font-size="13" fill="#1b273d" font-weight="400" text-anchor="start">Write a small summary</text>
<text x="966" y="623" font-size="12" fill="#4b5b73" font-weight="400" text-anchor="start">0 sessions today · One thing at a time</text>
<rect x="304" y="682" width="622" height="138" rx="20" fill="#f8faff" fill-opacity="0.92" stroke="#edf4ff" stroke-opacity=".65"/>
<text x="328" y="718" font-size="19" fill="#1b273d" font-weight="600" text-anchor="start">Within reach</text>
<text x="900" y="718" font-size="12" fill="#2454aa" font-weight="400" text-anchor="end">Explore</text>
<text x="328" y="756" font-size="13" fill="#1b273d" font-weight="400" text-anchor="start">Microsoft Learn</text>
<text x="328" y="792" font-size="13" fill="#1b273d" font-weight="400" text-anchor="start">Ideas for NEXUS</text>
<rect x="942" y="682" width="622" height="60" rx="20" fill="#f8faff" fill-opacity="0.92" stroke="#edf4ff" stroke-opacity=".65"/>
<text x="966" y="719" font-size="15" fill="#1b273d" font-weight="400" text-anchor="start">›   Quick note</text>
<rect x="304" y="840" width="408" height="48" rx="20" fill="#f8faff" fill-opacity="0.92" stroke="#edf4ff" stroke-opacity=".65"/>
<text x="328" y="870" font-size="14" fill="#1b273d" font-weight="400" text-anchor="start">My world</text>
<rect x="728" y="840" width="408" height="48" rx="20" fill="#f8faff" fill-opacity="0.92" stroke="#edf4ff" stroke-opacity=".65"/>
<text x="752" y="870" font-size="14" fill="#1b273d" font-weight="400" text-anchor="start">Entertainment</text>
<rect x="1152" y="840" width="408" height="48" rx="20" fill="#f8faff" fill-opacity="0.92" stroke="#edf4ff" stroke-opacity=".65"/>
<text x="1176" y="870" font-size="14" fill="#1b273d" font-weight="400" text-anchor="start">Study time</text>
<rect x="0" y="988" width="1600" height="12" rx="0" fill="#243856" fill-opacity="1" stroke="#edf4ff" stroke-opacity=".65"/>
<text x="1580" y="998" font-size="9" fill="#f5f8ff" font-weight="400" text-anchor="end">DESIGN REFERENCE · Sample content · Native Windows rendering unverified</text>
</g></svg>